<?xml version="1.0" standalone="no"?>
<!DOCTYPE svg PUBLIC "-//W3C//DTD SVG 20010904//EN"
 "http://www.w3.org/TR/2001/REC-SVG-20010904/DTD/svg10.dtd">
<svg version="1.0" xmlns="http://www.w3.org/2000/svg"
 width="700.000000pt" height="700.000000pt" viewBox="0 0 700.000000 700.000000"
 preserveAspectRatio="xMidYMid meet">
<metadata>
Created by potrace 1.14, written by Peter Selinger 2001-2017
</metadata>
<g transform="translate(0.000000,700.000000) scale(0.100000,-0.100000)"
fill="#000000" stroke="none">
<path d="M2920 6441 c-270 -55 -409 -99 -635 -201 -235 -106 -280 -130 -427
-229 -454 -305 -783 -673 -1016 -1139 -98 -196 -156 -347 -227 -587 -99 -333
-95 -307 -102 -624 -5 -229 -3 -315 10 -431 9 -80 19 -174 22 -210 15 -177
155 -607 275 -845 302 -599 744 -1043 1326 -1334 203 -101 396 -171 719 -261
l150 -42 271 -10 c319 -11 478 -2 709 40 464 84 813 220 1159 449 307 204 640
539 841 848 124 189 254 465 329 698 36 111 72 227 80 257 52 185 83 554 72
870 -5 159 -12 222 -37 345 -97 479 -211 760 -457 1120 -156 229 -199 281
-387 471 -186 186 -330 304 -511 416 -110 68 -318 173 -429 216 -337 131 -491
175 -705 201 -47 6 -101 15 -120 21 -20 6 -168 10 -355 9 l-320 -1 -235 -47z
m1309 -1500 c394 -208 942 -497 1218 -642 277 -145 503 -267 503 -271 0 -10
-82 -57 -437 -250 l-311 -170 -8 -76 c-4 -43 -8 -313 -8 -602 l0 -525 23 -45
c43 -84 98 -126 195 -151 l46 -11 0 -129 0 -128 -37 5 c-174 24 -305 97 -397
223 -65 88 -66 100 -66 728 0 310 -3 563 -7 563 -5 -1 -30 -14 -58 -30 -27
-16 -90 -48 -140 -72 -49 -23 -144 -71 -210 -106 -66 -34 -326 -166 -578 -293
l-458 -230 -207 107 c-114 59 -344 179 -512 267 -168 87 -366 191 -440 230
-362 189 -1278 682 -1292 696 -9 9 2412 1290 2441 1290 13 1 346 -169 740
-378z m-1684 -2068 c50 -22 216 -104 371 -181 155 -77 349 -172 432 -211 l150
-70 304 148 c531 260 729 351 759 349 16 -1 37 6 49 17 18 16 23 17 30 5 6 -8
10 -129 10 -268 0 -238 -1 -255 -21 -294 -30 -58 -108 -138 -192 -196 -73 -51
-925 -482 -951 -482 -18 0 -829 350 -908 392 -82 43 -170 140 -215 234 l-36
77 -5 288 -5 289 69 -29 c38 -16 110 -46 159 -68z"/>
</g>
</svg>
